<svg width="32" height="32" viewBox="0 0 32 32" fill="none" xmlns="http://www.w3.org/2000/svg">
<path d="M0 32C0.321205 31.0483 1.87369 27.6778 4.65747 21.8885C8.75282 13.1119 11.4964 7.21685 12.8883 4.20322C13.1292 3.67452 13.2497 3.23833 13.2497 2.89467C13.2497 2.31309 12.8616 2.0223 12.0853 2.0223C11.0414 2.0223 10.1581 2.35275 9.43538 3.01363C8.71267 3.64808 8.16395 4.45436 7.78921 5.43247C7.44124 6.41057 7.26725 7.4019 7.26725 8.40644C7.26725 8.96159 7.32079 9.59603 7.42785 10.3098C6.54454 10.3098 5.8486 9.93969 5.34002 9.1995C4.83145 8.43288 4.57716 7.60017 4.57716 6.70136C4.57716 5.61751 4.99205 4.5601 5.82183 3.52912C6.65161 2.47171 7.70891 1.62577 8.99373 0.991325C10.3053 0.330442 11.5901 0 12.8482 0C13.8921 0 14.7486 0.290789 15.4178 0.872367C16.1138 1.42751 16.6357 2.41883 16.9837 3.84634C17.3584 5.27385 17.5458 7.26972 17.5458 9.83395C17.5458 11.6844 17.3986 14.5527 17.1041 18.4387C16.89 21.2937 16.7829 23.1177 16.7829 23.9108C17.5859 21.5316 18.7235 18.8748 20.1957 15.9405C21.6679 13.0062 23.1267 10.2966 24.5721 7.81165C26.0443 5.30029 27.1953 3.4366 28.0251 2.22057C28.4534 1.55969 28.8147 1.11029 29.1092 0.872367C29.4036 0.608014 29.7783 0.475837 30.2334 0.475837C30.6081 0.475837 31.197 0.621232 32 0.91202C31.4647 2.04874 30.7687 4.36183 29.9122 7.8513C29.0556 11.3408 28.3061 15.0153 27.6637 18.8748C27.0481 22.708 26.7403 25.8009 26.7403 28.1537C26.7403 28.9732 26.7804 29.5812 26.8607 29.9777C26.941 30.3742 27.0481 30.7575 27.1819 31.1276C27.3425 31.5242 27.463 31.815 27.5433 32C26.3923 32 25.5224 31.8282 24.9335 31.4845C24.3446 31.1673 23.9431 30.6386 23.729 29.8984C23.5148 29.1846 23.4078 28.1669 23.4078 26.8451C23.4078 24.2016 23.6888 21.3994 24.2509 18.4387C24.8398 15.4779 25.6964 11.8563 26.8206 7.57373C25.1343 9.95291 23.2873 13.3234 21.2798 17.6853C19.2723 22.0471 17.7867 25.6291 16.8231 28.4312L16.542 28.5105C16.3547 28.5898 16.1673 28.6295 15.9799 28.6295C15.0966 28.6295 14.5077 28.1272 14.2133 27.1227C13.9456 26.1181 13.8118 24.5188 13.8118 22.3247C13.8118 20.9765 13.8653 18.7162 13.9724 15.544C14.0795 12.2131 14.133 9.78108 14.133 8.24783L14.0928 5.9083L9.95734 15.5043C7.97658 20.157 6.49101 23.5407 5.50063 25.6555C4.53701 27.7439 3.61355 29.3168 2.73024 30.3742C1.87369 31.4581 0.963614 32 0 32Z" fill="#FF97E8"/>
</svg>
