<svg xmlns="http://www.w3.org/2000/svg" viewBox="0 0 64 64"><title>performer-sing-artistic-music</title><g id="Cartoon_Filled_outline" data-name="Cartoon Filled outline"><path d="M16.45,40.17a9.3,9.3,0,0,0-4.23-.11,2.621,2.621,0,0,0-1.67.92,2.763,2.763,0,0,0,.07,2.77c.69,1.53,1.12,2.59,1.56,3.65.21.51.43,1.03.67,1.6-.16,0-.33-.01-.49,0a4.47,4.47,0,0,0-2.03.81,2.972,2.972,0,0,0-1.51,2.38,2.42,2.42,0,0,0,1.76,2.23,2.722,2.722,0,0,0,.8.12,3.617,3.617,0,0,0,1.81-.52,4.17,4.17,0,0,0,2.05-2.54,1.834,1.834,0,0,0-.09-.87.577.577,0,0,0-.03-.14c-.68-1.53-1.12-2.59-1.56-3.65s-.88-2.14-1.57-3.69c-.19-.42-.42-1.01-.23-1.27.15-.21.61-.3.77-.33a7.659,7.659,0,0,1,3.53.09.751.751,0,0,0,.39-1.45ZM13.57,50.82a.548.548,0,0,1,.19.46,2.767,2.767,0,0,1-1.34,1.45,2.076,2.076,0,0,1-1.03.31,1.209,1.209,0,0,1-.38-.06.916.916,0,0,1-.69-.79c0-.5.6-.96.86-1.14a2.843,2.843,0,0,1,1.33-.55.915.915,0,0,1,.16-.01A1.241,1.241,0,0,1,13.57,50.82Z"/><path d="M13.76,51.28a2.767,2.767,0,0,1-1.34,1.45,2.076,2.076,0,0,1-1.03.31,1.209,1.209,0,0,1-.38-.06.916.916,0,0,1-.69-.79c0-.5.6-.96.86-1.14a2.843,2.843,0,0,1,1.33-.55.915.915,0,0,1,.16-.01,1.241,1.241,0,0,1,.9.33A.548.548,0,0,1,13.76,51.28Z" style="fill:#98ecb7"/><path d="M21.18,16.38a1.229,1.229,0,0,0-.02-.27l-.06-.2a21.641,21.641,0,0,0-2.65-6.52,4.679,4.679,0,0,0-2.45-2,4.892,4.892,0,0,0-2.66.18A24.674,24.674,0,0,0,8.58,9.52a3.409,3.409,0,0,0-2.03,2.36,3.486,3.486,0,0,0,.42,1.87c.8,1.72,1.78,3.38,2.73,4.99.09.14.16.27.24.41a4.607,4.607,0,0,0-1.99.67A2.958,2.958,0,0,0,6.28,22.1,2.423,2.423,0,0,0,7.9,24.46a2.766,2.766,0,0,0,1,.17,3.486,3.486,0,0,0,1.63-.41,4.149,4.149,0,0,0,2.24-2.4,1.987,1.987,0,0,0-.47-1.73c-.05-.06-.12-.11-.17-.16q-.54-.945-1.14-1.95c-.53-.9-1.06-1.81-1.57-2.74,2.25-1.15,4.54-2.1,6.76-3.01.59-.24,1.18-.48,1.76-.73a19.848,19.848,0,0,1,1.27,3.28,3.822,3.822,0,0,0-.68-.06,4.466,4.466,0,0,0-2.09.68,3.018,3.018,0,0,0-1.68,2.28,2.45,2.45,0,0,0,1.62,2.36,3.1,3.1,0,0,0,1.01.17,3.6,3.6,0,0,0,1.63-.4,6.219,6.219,0,0,0,1.18-.8,3,3,0,0,0,1.05-1.61A1.938,1.938,0,0,0,21.18,16.38ZM10.15,20.64a1.277,1.277,0,0,1,.99.4.549.549,0,0,1,.16.48,2.725,2.725,0,0,1-1.45,1.37,2.09,2.09,0,0,1-.95.24,1.51,1.51,0,0,1-.48-.08.959.959,0,0,1-.65-.85c.04-.5.67-.93.94-1.09a3.06,3.06,0,0,1,1.38-.47ZM15.8,11.3c-2.25.92-4.57,1.88-6.85,3.06-.22-.41-.42-.83-.61-1.24a2.17,2.17,0,0,1-.3-1.05c.05-.4.45-.79,1.25-1.23a23.372,23.372,0,0,1,4.46-1.83,3.547,3.547,0,0,1,1.85-.18,3.208,3.208,0,0,1,1.62,1.42c.08.12.14.26.22.38C16.9,10.86,16.35,11.08,15.8,11.3Zm3.99,5.8a2.764,2.764,0,0,1-1.45,1.37,1.827,1.827,0,0,1-1.44.16.963.963,0,0,1-.64-.85c.03-.5.67-.93.94-1.09a3.022,3.022,0,0,1,1.38-.47h.06a1.307,1.307,0,0,1,.99.4A.549.549,0,0,1,19.79,17.1Z"/><path d="M11.3,21.52a2.725,2.725,0,0,1-1.45,1.37,2.09,2.09,0,0,1-.95.24,1.51,1.51,0,0,1-.48-.08.959.959,0,0,1-.65-.85c.04-.5.67-.93.94-1.09a3.06,3.06,0,0,1,1.38-.47h.06a1.277,1.277,0,0,1,.99.4A.549.549,0,0,1,11.3,21.52Z" style="fill:#98ecb7"/><path d="M19.79,17.1a2.764,2.764,0,0,1-1.45,1.37,1.827,1.827,0,0,1-1.44.16.963.963,0,0,1-.64-.85c.03-.5.67-.93.94-1.09a3.022,3.022,0,0,1,1.38-.47h.06a1.307,1.307,0,0,1,.99.4A.549.549,0,0,1,19.79,17.1Z" style="fill:#98ecb7"/><path d="M17.44,10.63c-.54.23-1.09.45-1.64.67-2.25.92-4.57,1.88-6.85,3.06-.22-.41-.42-.83-.61-1.24a2.17,2.17,0,0,1-.3-1.05c.05-.4.45-.79,1.25-1.23a23.372,23.372,0,0,1,4.46-1.83,3.547,3.547,0,0,1,1.85-.18,3.208,3.208,0,0,1,1.62,1.42C17.3,10.37,17.36,10.51,17.44,10.63Z" style="fill:#98ecb7"/><path d="M57.65,28.22a3.448,3.448,0,0,0-2.31-1.43,4.039,4.039,0,0,1-1.03-.39c-.59-.39-.82-1.32-.72-2.93.04-.7.09-1.39.14-2.09a53.549,53.549,0,0,0,.21-5.55A16.189,16.189,0,0,0,52.01,8.1c-2.78-4.82-8.75-6.27-13.39-6.01-6.22.34-11.24,5.5-11.58,9.9a3.034,3.034,0,0,0,1.3,2.68c.09.06.19.1.28.15a30.5,30.5,0,0,0-.45,6.71,4.719,4.719,0,0,0-2.98.76,4.066,4.066,0,0,0-1.52,1.89,5.011,5.011,0,0,0-3.4.42,5.19,5.19,0,0,0-2.64,4.1,31.281,31.281,0,0,0-5.33,2.68,2.98,2.98,0,0,0-1.48,1.73,2.815,2.815,0,0,0,.48,2.14,2.853,2.853,0,0,0,1.89,1.47,2.561,2.561,0,0,0,.39.03,3.623,3.623,0,0,0,1.53-.42c1.13-.54,2.24-1.14,3.34-1.77-.21,6.72-.38,13.92-.54,23.08a6.5,6.5,0,0,0,.41,2.84,2.515,2.515,0,0,0,2.42,1.46,3.9,3.9,0,0,0,.58-.05,2.485,2.485,0,0,0,2.18-1.51,6.308,6.308,0,0,0,.31-2.3c.03-3.89.02-8.1.02-12.32-.01-2.66-.01-5.32-.01-7.9A28.706,28.706,0,0,0,27.4,43a5.706,5.706,0,0,0,3.81,2.21h.18c.06,0,.12-.01.18-.01a10.691,10.691,0,0,1,1.3,7.01,21.448,21.448,0,0,1-.75,2.76c-.21.68-.44,1.38-.62,2.1a4.016,4.016,0,0,0,.4,3.37,4.072,4.072,0,0,0,3.03,1.3,38.223,38.223,0,0,0,3.86.19,40.32,40.32,0,0,0,4.91-.3,4.144,4.144,0,0,0,2.89-1.3,3.97,3.97,0,0,0,.44-3.29c-.2-.94-.47-1.86-.73-2.75a24.149,24.149,0,0,1-.91-3.95,23.8,23.8,0,0,1,.83-7.59,31.393,31.393,0,0,0,.96-6.53A13.08,13.08,0,0,0,47,33.9a8.676,8.676,0,0,0,3.73.84h.23a7.972,7.972,0,0,0,6.09-2.92A3.194,3.194,0,0,0,57.65,28.22Zm-43.4,6.3a1.559,1.559,0,0,1-.71.23c-.05-.01-.25-.08-.55-.56-.26-.43-.24-.58-.23-.6.03-.11.23-.29.6-.52a30.315,30.315,0,0,1,4.54-2.32,4.613,4.613,0,0,0,.77,1.37C17.23,32.97,15.75,33.81,14.25,34.52ZM26.3,23.95a2.764,2.764,0,0,1,1.87-.42,2.527,2.527,0,0,1,2.21,1.74,3.777,3.777,0,0,1-.17,1.87c-.28.72-.55,1.03-1.56,1.42a3.212,3.212,0,0,1-1.13.2,4.965,4.965,0,0,0-1.42-3.3,4.82,4.82,0,0,0-.6-.5A2.133,2.133,0,0,1,26.3,23.95Zm16.3,4.12a15.817,15.817,0,0,1-7.91-.15,8.358,8.358,0,0,1-.96-.31c.05,0,.1.01.15.01a2.553,2.553,0,0,0,2.31-1.49,3.384,3.384,0,0,0,.23-1.55,4.557,4.557,0,0,0-.45-1.82,2.965,2.965,0,0,0-1.42-1.38,2.28,2.28,0,0,0-2.07.13,2.459,2.459,0,0,0-1.03,1.62,4.385,4.385,0,0,0-1.22-.99,25.83,25.83,0,0,1,.33-6.78c.02.01.05.01.07.02,3.87.51,7.8.76,11.64.98-.13,2.54-.14,5.11-.13,7.73A16.235,16.235,0,0,0,42.6,28.07ZM34.87,48.72a47.322,47.322,0,0,0,5.32.32c1.05,0,2.09-.04,3.13-.11a15.129,15.129,0,0,0,.08,1.64c.05.45.13.9.22,1.34a36.61,36.61,0,0,1-8.69-.08A12.97,12.97,0,0,0,34.87,48.72Zm8.48-.8a45.578,45.578,0,0,1-8.66-.22,11.309,11.309,0,0,0-1.12-3.07,11.865,11.865,0,0,0,1.3-.8,28.232,28.232,0,0,0,7.05-6.43,6.288,6.288,0,0,0,1.32-2.98A3.065,3.065,0,0,0,39.07,31a8.459,8.459,0,0,0-1.95.98,15.663,15.663,0,0,0-1.88,1.6,16.941,16.941,0,0,1,2.95-3.1c.25.01.5.03.76.03a17.507,17.507,0,0,0,3.46-.35,5.013,5.013,0,0,1,2.13,2.38,8.936,8.936,0,0,1,.64,3.67,30.223,30.223,0,0,1-.91,6.12A37.67,37.67,0,0,0,43.35,47.92Zm-9.2-18.07c.46.13.93.23,1.4.32a19.414,19.414,0,0,0-4.3,6.5,2.907,2.907,0,0,1-.37-.33,40.016,40.016,0,0,1-3.59-4.22,1.429,1.429,0,0,1-.17-1.16c.03-.07.04-.13.07-.2.06,0,.12.01.18.01a5.8,5.8,0,0,0,2.01-.34,4.363,4.363,0,0,0,2.22-1.64A9.774,9.774,0,0,0,34.15,29.85ZM32.41,23.4a1.468,1.468,0,0,1,.61-1.04,1.261,1.261,0,0,1,1.14-.06,1.951,1.951,0,0,1,.92.92,3.443,3.443,0,0,1,.34,1.41,2.594,2.594,0,0,1-.15,1.11,1.472,1.472,0,0,1-2.78-.24,3.807,3.807,0,0,1-.13-.82A6.484,6.484,0,0,1,32.41,23.4ZM21.83,45.77c0,4.21.01,8.41-.02,12.3a4.794,4.794,0,0,1-.18,1.6c-.03.09-.06.16-.62.25-.26.04-.73.06-.87-.26a4.9,4.9,0,0,1-.23-1.99c.17-9.7.34-17.21.57-24.27a6.293,6.293,0,0,0,1.33.38c.01.02.02.03.03.05C21.82,37.62,21.82,41.69,21.83,45.77Zm9.47-2.56a3.688,3.688,0,0,1-2.4-1.54,32.283,32.283,0,0,1-5.08-8.31.937.937,0,0,0-.33-.65,1.937,1.937,0,0,0-1.29-.88,4.051,4.051,0,0,1-1.68-.67,2.623,2.623,0,0,1-.88-1.61,3.141,3.141,0,0,1,1.57-3.18,2.878,2.878,0,0,1,1.36-.33,2.906,2.906,0,0,1,2.72,4.11,3.4,3.4,0,0,0,.39,3.15,43.132,43.132,0,0,0,3.77,4.44,3.4,3.4,0,0,0,1.25.88,2.659,2.659,0,0,0,2.16-.27,10.428,10.428,0,0,0,1.41-1.07c.73-.64,1.29-1.21,1.8-1.71a16.975,16.975,0,0,1,2.22-1.96,6.44,6.44,0,0,1,1.44-.72,1.382,1.382,0,0,1,.96-.02,1.346,1.346,0,0,1,.57,1.33,4.568,4.568,0,0,1-.96,2.02,26.222,26.222,0,0,1-6.56,5.96A4.358,4.358,0,0,1,31.3,43.21Zm13.71,15.9a2.466,2.466,0,0,1-1.55.53,38.133,38.133,0,0,1-8.34.11,2.525,2.525,0,0,1-1.64-.53c-.23-.3-.24-.85-.03-1.67.16-.66.36-1.3.58-1.97a26.119,26.119,0,0,0,.75-2.77,37.681,37.681,0,0,0,4.86.34,39.281,39.281,0,0,0,4.2-.25c.17.66.36,1.31.54,1.95.26.89.51,1.74.69,2.61A2.314,2.314,0,0,1,45.01,59.11ZM55.48,30.58a5.823,5.823,0,0,1-.4.45,8.059,8.059,0,0,1-4.46-4.61.516.516,0,0,0-.65-.29.488.488,0,0,0-.29.64,9.082,9.082,0,0,0,4.54,4.96,6.3,6.3,0,0,1-2.93.98,10.294,10.294,0,0,1-4.58-9.21.5.5,0,0,0-1-.06,11.5,11.5,0,0,0,1.46,6.28,11.335,11.335,0,0,0,2.42,2.93,5.849,5.849,0,0,1-3.46-1.83c-1.31-1.5-1.98-3.76-1.99-6.73-.01-2.62,0-5.18.13-7.68a2.426,2.426,0,0,0,.75-.24,2.769,2.769,0,0,0,1.31-2.84c-.01-.18-.02-.34-.03-.5a15.316,15.316,0,0,0-.2-1.71,1,1,0,0,0-1.97.35,11.486,11.486,0,0,1,.17,1.49c.01.17.02.35.04.54a1.07,1.07,0,0,1-.22.89,1.675,1.675,0,0,1-.69.03c-1.47-.08-2.97-.17-4.46-.27a20.786,20.786,0,0,1,.56-3.85.483.483,0,0,0-.36-.6.514.514,0,0,0-.61.36,22.8,22.8,0,0,0-.59,4.02c-1.54-.11-3.07-.24-4.6-.4a11.537,11.537,0,0,1,.91-3.48.5.5,0,1,0-.91-.41,12.081,12.081,0,0,0-.99,3.77c-.5-.05-.99-.1-1.48-.17A3.621,3.621,0,0,1,29.43,13a1.064,1.064,0,0,1-.39-.86c.23-3.08,4.13-7.75,9.69-8.05,4.05-.23,9.22.98,11.54,5.01a14.153,14.153,0,0,1,1.67,6.8,49.981,49.981,0,0,1-.2,5.33q-.09,1.065-.15,2.13c-.09,1.5-.01,3.63,1.62,4.71a5.307,5.307,0,0,0,1.59.64c.61.17.99.29,1.12.52C56.08,29.5,55.89,30.05,55.48,30.58Z"/><path d="M45.07,57.46c-.18-.87-.43-1.72-.69-2.61-.18-.64-.37-1.29-.54-1.95a39.281,39.281,0,0,1-4.2.25,37.681,37.681,0,0,1-4.86-.34,26.119,26.119,0,0,1-.75,2.77c-.22.67-.42,1.31-.58,1.97-.21.82-.2,1.37.03,1.67a2.525,2.525,0,0,0,1.64.53,38.133,38.133,0,0,0,8.34-.11,2.466,2.466,0,0,0,1.55-.53A2.314,2.314,0,0,0,45.07,57.46Zm-9.58.29-.21.93a.5.5,0,0,1-.49.39.41.41,0,0,1-.11-.01.5.5,0,0,1-.38-.6l.21-.93a.5.5,0,1,1,.98.22Zm1.41.2a1.788,1.788,0,0,0-.16.69.5.5,0,0,1-.5.49h-.01a.508.508,0,0,1-.49-.51,2.877,2.877,0,0,1,.24-1.08.494.494,0,0,1,.66-.25A.5.5,0,0,1,36.9,57.95Zm1.45.11-.17.68a.5.5,0,0,1-.49.38.487.487,0,0,1-.12-.01.5.5,0,0,1-.36-.61l.17-.68a.5.5,0,0,1,.6-.37A.512.512,0,0,1,38.35,58.06Z" style="fill:#f98c96"/><path d="M43.62,51.91a36.61,36.61,0,0,1-8.69-.08,12.97,12.97,0,0,0-.06-3.11,47.322,47.322,0,0,0,5.32.32c1.05,0,2.09-.04,3.13-.11a15.129,15.129,0,0,0,.08,1.64C43.45,51.02,43.53,51.47,43.62,51.91Z" style="fill:#ffd8bb"/><path d="M45.18,36.21a30.223,30.223,0,0,1-.91,6.12,37.67,37.67,0,0,0-.92,5.59,45.578,45.578,0,0,1-8.66-.22,11.309,11.309,0,0,0-1.12-3.07,11.865,11.865,0,0,0,1.3-.8,28.232,28.232,0,0,0,7.05-6.43,6.288,6.288,0,0,0,1.32-2.98A3.065,3.065,0,0,0,39.07,31a8.459,8.459,0,0,0-1.95.98,15.663,15.663,0,0,0-1.88,1.6,16.941,16.941,0,0,1,2.95-3.1c.25.01.5.03.76.03a17.507,17.507,0,0,0,3.46-.35,5.013,5.013,0,0,1,2.13,2.38A8.936,8.936,0,0,1,45.18,36.21Z" style="fill:#f98c96"/><path d="M55.48,30.58a5.823,5.823,0,0,1-.4.45,8.059,8.059,0,0,1-4.46-4.61.516.516,0,0,0-.65-.29.488.488,0,0,0-.29.64,9.082,9.082,0,0,0,4.54,4.96,6.3,6.3,0,0,1-2.93.98,10.294,10.294,0,0,1-4.58-9.21.5.5,0,0,0-1-.06,11.5,11.5,0,0,0,1.46,6.28,11.335,11.335,0,0,0,2.42,2.93,5.849,5.849,0,0,1-3.46-1.83c-1.31-1.5-1.98-3.76-1.99-6.73-.01-2.62,0-5.18.13-7.68a2.426,2.426,0,0,0,.75-.24,2.769,2.769,0,0,0,1.31-2.84c-.01-.18-.02-.34-.03-.5a15.316,15.316,0,0,0-.2-1.71,1,1,0,0,0-1.97.35,11.486,11.486,0,0,1,.17,1.49c.01.17.02.35.04.54a1.07,1.07,0,0,1-.22.89,1.675,1.675,0,0,1-.69.03c-1.47-.08-2.97-.17-4.46-.27a20.786,20.786,0,0,1,.56-3.85.483.483,0,0,0-.36-.6.514.514,0,0,0-.61.36,22.8,22.8,0,0,0-.59,4.02c-1.54-.11-3.07-.24-4.6-.4a11.537,11.537,0,0,1,.91-3.48.5.5,0,1,0-.91-.41,12.081,12.081,0,0,0-.99,3.77c-.5-.05-.99-.1-1.48-.17A3.621,3.621,0,0,1,29.43,13a1.064,1.064,0,0,1-.39-.86c.23-3.08,4.13-7.75,9.69-8.05,4.05-.23,9.22.98,11.54,5.01a14.153,14.153,0,0,1,1.67,6.8,49.981,49.981,0,0,1-.2,5.33q-.09,1.065-.15,2.13c-.09,1.5-.01,3.63,1.62,4.71a5.307,5.307,0,0,0,1.59.64c.61.17.99.29,1.12.52C56.08,29.5,55.89,30.05,55.48,30.58Z" style="fill:#394d5c"/><path d="M35.42,24.63a2.594,2.594,0,0,1-.15,1.11,1.472,1.472,0,0,1-2.78-.24,3.807,3.807,0,0,1-.13-.82,6.484,6.484,0,0,1,.05-1.28,1.468,1.468,0,0,1,.61-1.04,1.261,1.261,0,0,1,1.14-.06,1.951,1.951,0,0,1,.92.92A3.443,3.443,0,0,1,35.42,24.63Z" style="fill:#e4544f"/><path d="M42.6,28.07a15.817,15.817,0,0,1-7.91-.15,8.358,8.358,0,0,1-.96-.31c.05,0,.1.01.15.01a2.553,2.553,0,0,0,2.31-1.49,3.384,3.384,0,0,0,.23-1.55,4.557,4.557,0,0,0-.45-1.82,2.965,2.965,0,0,0-1.42-1.38,2.28,2.28,0,0,0-2.07.13,2.459,2.459,0,0,0-1.03,1.62,4.385,4.385,0,0,0-1.22-.99,25.83,25.83,0,0,1,.33-6.78c.02.01.05.01.07.02,3.87.51,7.8.76,11.64.98-.13,2.54-.14,5.11-.13,7.73A16.235,16.235,0,0,0,42.6,28.07Z" style="fill:#ffd8bb"/><path d="M30.38,25.27a2.527,2.527,0,0,0-2.21-1.74,2.764,2.764,0,0,0-1.87.42,2.133,2.133,0,0,0-.8,1.01,4.82,4.82,0,0,1,.6.5,4.965,4.965,0,0,1,1.42,3.3,3.212,3.212,0,0,0,1.13-.2c1.01-.39,1.28-.7,1.56-1.42A3.777,3.777,0,0,0,30.38,25.27Zm-1.91-.77a.5.5,0,0,1-.5.5.5.5,0,0,1-.5-.5.554.554,0,0,1,.5-.55.463.463,0,0,1,.5.46Zm1.67,1.18-.03.06a.514.514,0,0,1-.45.27.525.525,0,0,1-.23-.06.5.5,0,0,1-.21-.67.524.524,0,0,1,.69-.24A.459.459,0,0,1,30.14,25.68Z" style="fill:#f9bb4b"/><path d="M21.83,45.77c0,4.21.01,8.41-.02,12.3a4.794,4.794,0,0,1-.18,1.6c-.03.09-.06.16-.62.25-.26.04-.73.06-.87-.26a4.9,4.9,0,0,1-.23-1.99c.17-9.7.34-17.21.57-24.27a6.293,6.293,0,0,0,1.33.38c.01.02.02.03.03.05C21.82,37.62,21.82,41.69,21.83,45.77Z" style="fill:#7d8d9c"/><path d="M41.26,34.2a4.568,4.568,0,0,1-.96,2.02,26.222,26.222,0,0,1-6.56,5.96,4.358,4.358,0,0,1-2.44,1.03,3.688,3.688,0,0,1-2.4-1.54,32.283,32.283,0,0,1-5.08-8.31.937.937,0,0,0-.33-.65,1.937,1.937,0,0,0-1.29-.88,4.051,4.051,0,0,1-1.68-.67,2.623,2.623,0,0,1-.88-1.61,3.141,3.141,0,0,1,1.57-3.18,2.878,2.878,0,0,1,1.36-.33,2.906,2.906,0,0,1,2.72,4.11,3.4,3.4,0,0,0,.39,3.15,43.132,43.132,0,0,0,3.77,4.44,3.4,3.4,0,0,0,1.25.88,2.659,2.659,0,0,0,2.16-.27,10.428,10.428,0,0,0,1.41-1.07c.73-.64,1.29-1.21,1.8-1.71a16.975,16.975,0,0,1,2.22-1.96,6.44,6.44,0,0,1,1.44-.72,1.382,1.382,0,0,1,.96-.02A1.346,1.346,0,0,1,41.26,34.2Z" style="fill:#ffd8bb"/><path d="M18.67,32.12c-1.44.85-2.92,1.69-4.42,2.4a1.559,1.559,0,0,1-.71.23c-.05-.01-.25-.08-.55-.56-.26-.43-.24-.58-.23-.6.03-.11.23-.29.6-.52a30.315,30.315,0,0,1,4.54-2.32A4.613,4.613,0,0,0,18.67,32.12Z" style="fill:#5a6470"/><path d="M28.47,24.41v.09a.5.5,0,0,1-.5.5.5.5,0,0,1-.5-.5.554.554,0,0,1,.5-.55A.463.463,0,0,1,28.47,24.41Z"/><path d="M30.14,25.68l-.03.06a.514.514,0,0,1-.45.27.525.525,0,0,1-.23-.06.5.5,0,0,1-.21-.67.524.524,0,0,1,.69-.24A.459.459,0,0,1,30.14,25.68Z"/><path d="M35.49,57.75l-.21.93a.5.5,0,0,1-.49.39.41.41,0,0,1-.11-.01.5.5,0,0,1-.38-.6l.21-.93a.5.5,0,1,1,.98.22Z"/><path d="M36.9,57.95a1.788,1.788,0,0,0-.16.69.5.5,0,0,1-.5.49h-.01a.508.508,0,0,1-.49-.51,2.877,2.877,0,0,1,.24-1.08.494.494,0,0,1,.66-.25A.5.5,0,0,1,36.9,57.95Z"/><path d="M38.35,58.06l-.17.68a.5.5,0,0,1-.49.38.487.487,0,0,1-.12-.01.5.5,0,0,1-.36-.61l.17-.68a.5.5,0,0,1,.6-.37A.512.512,0,0,1,38.35,58.06Z"/></g></svg>